%TF.GenerationSoftware,KiCad,Pcbnew,8.0.8*%
%TF.CreationDate,2025-01-27T09:22:13+00:00*%
%TF.ProjectId,ViaTest,56696154-6573-4742-9e6b-696361645f70,rev?*%
%TF.SameCoordinates,Original*%
%TF.FileFunction,Copper,L1,Top*%
%TF.FilePolarity,Positive*%
%FSLAX46Y46*%
G04 Gerber Fmt 4.6, Leading zero omitted, Abs format (unit mm)*
G04 Created by KiCad (PCBNEW 8.0.8) date 2025-01-27 09:22:13*
%MOMM*%
%LPD*%
G01*
G04 APERTURE LIST*
%TA.AperFunction,SMDPad,CuDef*%
%ADD10R,3.400000X1.400000*%
%TD*%
%TA.AperFunction,SMDPad,CuDef*%
%ADD11R,5.600000X2.300000*%
%TD*%
%TA.AperFunction,SMDPad,CuDef*%
%ADD12R,1.400000X3.400000*%
%TD*%
%TA.AperFunction,SMDPad,CuDef*%
%ADD13R,2.300000X5.600000*%
%TD*%
%TA.AperFunction,ViaPad*%
%ADD14C,0.600000*%
%TD*%
%TA.AperFunction,Conductor*%
%ADD15C,0.200000*%
%TD*%
G04 APERTURE END LIST*
D10*
%TO.P,J2,1,Pin_1*%
%TO.N,GND*%
X161870000Y-90000000D03*
%TO.P,J2,2,Pin_2*%
%TO.N,+BATT*%
X161870000Y-92500000D03*
%TO.P,J2,3,Pin_3*%
%TO.N,/SIG*%
X161870000Y-95000000D03*
D11*
%TO.P,J2,MP*%
%TO.N,N/C*%
X165030000Y-86200000D03*
X165030000Y-98800000D03*
%TD*%
D10*
%TO.P,J1,1,Pin_1*%
%TO.N,GND*%
X123000000Y-95000000D03*
%TO.P,J1,2,Pin_2*%
%TO.N,unconnected-(J1-Pin_2-Pad2)*%
X123000000Y-92500000D03*
%TO.P,J1,3,Pin_3*%
%TO.N,/SIG*%
X123000000Y-90000000D03*
D11*
%TO.P,J1,MP*%
%TO.N,N/C*%
X119840000Y-98800000D03*
X119840000Y-86200000D03*
%TD*%
D12*
%TO.P,J3,1,Pin_1*%
%TO.N,GND*%
X143750000Y-101870000D03*
%TO.P,J3,2,Pin_2*%
%TO.N,+BATT*%
X141250000Y-101870000D03*
D13*
%TO.P,J3,MP*%
%TO.N,N/C*%
X147550000Y-105030000D03*
X137450000Y-105030000D03*
%TD*%
D14*
%TO.N,GND*%
X158000000Y-90000000D03*
X127000000Y-95000000D03*
X143759191Y-97996634D03*
%TD*%
D15*
%TO.N,GND*%
X123000000Y-95000000D02*
X127000000Y-95000000D01*
X143750000Y-98005825D02*
X143759191Y-97996634D01*
X161870000Y-90000000D02*
X158000000Y-90000000D01*
X143750000Y-101870000D02*
X143750000Y-98005825D01*
%TO.N,/SIG*%
X137500000Y-90000000D02*
X142500000Y-95000000D01*
X142500000Y-95000000D02*
X161870000Y-95000000D01*
X123000000Y-90000000D02*
X137500000Y-90000000D01*
%TD*%
%TA.AperFunction,Conductor*%
%TO.N,+BATT*%
G36*
X169442539Y-83520185D02*
G01*
X169488294Y-83572989D01*
X169499500Y-83624500D01*
X169499500Y-109875500D01*
X169479815Y-109942539D01*
X169427011Y-109988294D01*
X169375500Y-109999500D01*
X115624500Y-109999500D01*
X115557461Y-109979815D01*
X115511706Y-109927011D01*
X115500500Y-109875500D01*
X115500500Y-102182135D01*
X135799500Y-102182135D01*
X135799500Y-107877870D01*
X135799501Y-107877876D01*
X135805908Y-107937483D01*
X135856202Y-108072328D01*
X135856206Y-108072335D01*
X135942452Y-108187544D01*
X135942455Y-108187547D01*
X136057664Y-108273793D01*
X136057671Y-108273797D01*
X136192517Y-108324091D01*
X136192516Y-108324091D01*
X136199444Y-108324835D01*
X136252127Y-108330500D01*
X138647872Y-108330499D01*
X138707483Y-108324091D01*
X138842331Y-108273796D01*
X138957546Y-108187546D01*
X139043796Y-108072331D01*
X139094091Y-107937483D01*
X139100500Y-107877873D01*
X139100499Y-103617844D01*
X140050000Y-103617844D01*
X140056401Y-103677372D01*
X140056403Y-103677379D01*
X140106645Y-103812086D01*
X140106649Y-103812093D01*
X140192809Y-103927187D01*
X140192812Y-103927190D01*
X140307906Y-104013350D01*
X140307913Y-104013354D01*
X140442620Y-104063596D01*
X140442627Y-104063598D01*
X140502155Y-104069999D01*
X140502172Y-104070000D01*
X141000000Y-104070000D01*
X141000000Y-102120000D01*
X140050000Y-102120000D01*
X140050000Y-103617844D01*
X139100499Y-103617844D01*
X139100499Y-102182128D01*
X139094091Y-102122517D01*
X139093152Y-102120000D01*
X139043797Y-101987671D01*
X139043793Y-101987664D01*
X138957547Y-101872455D01*
X138957544Y-101872452D01*
X138842335Y-101786206D01*
X138842328Y-101786202D01*
X138707482Y-101735908D01*
X138707483Y-101735908D01*
X138647883Y-101729501D01*
X138647881Y-101729500D01*
X138647873Y-101729500D01*
X138647864Y-101729500D01*
X136252129Y-101729500D01*
X136252123Y-101729501D01*
X136192516Y-101735908D01*
X136057671Y-101786202D01*
X136057664Y-101786206D01*
X135942455Y-101872452D01*
X135942452Y-101872455D01*
X135856206Y-101987664D01*
X135856202Y-101987671D01*
X135805908Y-102122517D01*
X135799501Y-102182116D01*
X135799501Y-102182123D01*
X135799500Y-102182135D01*
X115500500Y-102182135D01*
X115500500Y-97602135D01*
X116539500Y-97602135D01*
X116539500Y-99997870D01*
X116539501Y-99997876D01*
X116545908Y-100057483D01*
X116596202Y-100192328D01*
X116596206Y-100192335D01*
X116682452Y-100307544D01*
X116682455Y-100307547D01*
X116797664Y-100393793D01*
X116797671Y-100393797D01*
X116932517Y-100444091D01*
X116932516Y-100444091D01*
X116939444Y-100444835D01*
X116992127Y-100450500D01*
X122687872Y-100450499D01*
X122747483Y-100444091D01*
X122882331Y-100393796D01*
X122997546Y-100307546D01*
X123083796Y-100192331D01*
X123109970Y-100122155D01*
X140050000Y-100122155D01*
X140050000Y-101620000D01*
X141000000Y-101620000D01*
X141000000Y-99670000D01*
X141500000Y-99670000D01*
X141500000Y-104070000D01*
X141997828Y-104070000D01*
X141997844Y-104069999D01*
X142057372Y-104063598D01*
X142057379Y-104063596D01*
X142192086Y-104013354D01*
X142192093Y-104013350D01*
X142307187Y-103927190D01*
X142307190Y-103927187D01*
X142398669Y-103804989D01*
X142400868Y-103806635D01*
X142440262Y-103767225D01*
X142508531Y-103752358D01*
X142574001Y-103776761D01*
X142599546Y-103806235D01*
X142600888Y-103805231D01*
X142692452Y-103927544D01*
X142692455Y-103927547D01*
X142807664Y-104013793D01*
X142807671Y-104013797D01*
X142942517Y-104064091D01*
X142942516Y-104064091D01*
X142949444Y-104064835D01*
X143002127Y-104070500D01*
X144497872Y-104070499D01*
X144557483Y-104064091D01*
X144692331Y-104013796D01*
X144807546Y-103927546D01*
X144893796Y-103812331D01*
X144944091Y-103677483D01*
X144950500Y-103617873D01*
X144950500Y-102182135D01*
X145899500Y-102182135D01*
X145899500Y-107877870D01*
X145899501Y-107877876D01*
X145905908Y-107937483D01*
X145956202Y-108072328D01*
X145956206Y-108072335D01*
X146042452Y-108187544D01*
X146042455Y-108187547D01*
X146157664Y-108273793D01*
X146157671Y-108273797D01*
X146292517Y-108324091D01*
X146292516Y-108324091D01*
X146299444Y-108324835D01*
X146352127Y-108330500D01*
X148747872Y-108330499D01*
X148807483Y-108324091D01*
X148942331Y-108273796D01*
X149057546Y-108187546D01*
X149143796Y-108072331D01*
X149194091Y-107937483D01*
X149200500Y-107877873D01*
X149200499Y-102182128D01*
X149194091Y-102122517D01*
X149193152Y-102120000D01*
X149143797Y-101987671D01*
X149143793Y-101987664D01*
X149057547Y-101872455D01*
X149057544Y-101872452D01*
X148942335Y-101786206D01*
X148942328Y-101786202D01*
X148807482Y-101735908D01*
X148807483Y-101735908D01*
X148747883Y-101729501D01*
X148747881Y-101729500D01*
X148747873Y-101729500D01*
X148747864Y-101729500D01*
X146352129Y-101729500D01*
X146352123Y-101729501D01*
X146292516Y-101735908D01*
X146157671Y-101786202D01*
X146157664Y-101786206D01*
X146042455Y-101872452D01*
X146042452Y-101872455D01*
X145956206Y-101987664D01*
X145956202Y-101987671D01*
X145905908Y-102122517D01*
X145899501Y-102182116D01*
X145899501Y-102182123D01*
X145899500Y-102182135D01*
X144950500Y-102182135D01*
X144950499Y-100122128D01*
X144944091Y-100062517D01*
X144942213Y-100057483D01*
X144893797Y-99927671D01*
X144893793Y-99927664D01*
X144807547Y-99812455D01*
X144807544Y-99812452D01*
X144692335Y-99726206D01*
X144692328Y-99726202D01*
X144557482Y-99675908D01*
X144557483Y-99675908D01*
X144497883Y-99669501D01*
X144497881Y-99669500D01*
X144497873Y-99669500D01*
X144497865Y-99669500D01*
X144474500Y-99669500D01*
X144407461Y-99649815D01*
X144361706Y-99597011D01*
X144350500Y-99545500D01*
X144350500Y-98588765D01*
X144370185Y-98521726D01*
X144386819Y-98501084D01*
X144387227Y-98500676D01*
X144389007Y-98498896D01*
X144484980Y-98346156D01*
X144544559Y-98175889D01*
X144564756Y-97996634D01*
X144544559Y-97817379D01*
X144484980Y-97647112D01*
X144456719Y-97602135D01*
X161729500Y-97602135D01*
X161729500Y-99997870D01*
X161729501Y-99997876D01*
X161735908Y-100057483D01*
X161786202Y-100192328D01*
X161786206Y-100192335D01*
X161872452Y-100307544D01*
X161872455Y-100307547D01*
X161987664Y-100393793D01*
X161987671Y-100393797D01*
X162122517Y-100444091D01*
X162122516Y-100444091D01*
X162129444Y-100444835D01*
X162182127Y-100450500D01*
X167877872Y-100450499D01*
X167937483Y-100444091D01*
X168072331Y-100393796D01*
X168187546Y-100307546D01*
X168273796Y-100192331D01*
X168324091Y-100057483D01*
X168330500Y-99997873D01*
X168330499Y-97602128D01*
X168324091Y-97542517D01*
X168273796Y-97407669D01*
X168273795Y-97407668D01*
X168273793Y-97407664D01*
X168187547Y-97292455D01*
X168187544Y-97292452D01*
X168072335Y-97206206D01*
X168072328Y-97206202D01*
X167937482Y-97155908D01*
X167937483Y-97155908D01*
X167877883Y-97149501D01*
X167877881Y-97149500D01*
X167877873Y-97149500D01*
X167877864Y-97149500D01*
X162182129Y-97149500D01*
X162182123Y-97149501D01*
X162122516Y-97155908D01*
X161987671Y-97206202D01*
X161987664Y-97206206D01*
X161872455Y-97292452D01*
X161872452Y-97292455D01*
X161786206Y-97407664D01*
X161786202Y-97407671D01*
X161735908Y-97542517D01*
X161729501Y-97602116D01*
X161729501Y-97602123D01*
X161729500Y-97602135D01*
X144456719Y-97602135D01*
X144389007Y-97494372D01*
X144261453Y-97366818D01*
X144108714Y-97270845D01*
X143938445Y-97211265D01*
X143938440Y-97211264D01*
X143759195Y-97191069D01*
X143759187Y-97191069D01*
X143579941Y-97211264D01*
X143579936Y-97211265D01*
X143409667Y-97270845D01*
X143256928Y-97366818D01*
X143129375Y-97494371D01*
X143033402Y-97647110D01*
X142973822Y-97817379D01*
X142973821Y-97817384D01*
X142953626Y-97996630D01*
X142953626Y-97996637D01*
X142973821Y-98175883D01*
X142973822Y-98175888D01*
X143033402Y-98346156D01*
X143129375Y-98498896D01*
X143129376Y-98498897D01*
X143130494Y-98500676D01*
X143149500Y-98566648D01*
X143149500Y-99545500D01*
X143129815Y-99612539D01*
X143077011Y-99658294D01*
X143025505Y-99669500D01*
X143002132Y-99669500D01*
X143002123Y-99669501D01*
X142942516Y-99675908D01*
X142807671Y-99726202D01*
X142807664Y-99726206D01*
X142692455Y-99812452D01*
X142692452Y-99812455D01*
X142600888Y-99934769D01*
X142598756Y-99933173D01*
X142559127Y-99972794D01*
X142490852Y-99987638D01*
X142425391Y-99963214D01*
X142400057Y-99933971D01*
X142398669Y-99935011D01*
X142307190Y-99812812D01*
X142307187Y-99812809D01*
X142192093Y-99726649D01*
X142192086Y-99726645D01*
X142057379Y-99676403D01*
X142057372Y-99676401D01*
X141997844Y-99670000D01*
X141500000Y-99670000D01*
X141000000Y-99670000D01*
X140502155Y-99670000D01*
X140442627Y-99676401D01*
X140442620Y-99676403D01*
X140307913Y-99726645D01*
X140307906Y-99726649D01*
X140192812Y-99812809D01*
X140192809Y-99812812D01*
X140106649Y-99927906D01*
X140106645Y-99927913D01*
X140056403Y-100062620D01*
X140056401Y-100062627D01*
X140050000Y-100122155D01*
X123109970Y-100122155D01*
X123134091Y-100057483D01*
X123140500Y-99997873D01*
X123140499Y-97602128D01*
X123134091Y-97542517D01*
X123083796Y-97407669D01*
X123083795Y-97407668D01*
X123083793Y-97407664D01*
X122997547Y-97292455D01*
X122997544Y-97292452D01*
X122882335Y-97206206D01*
X122882328Y-97206202D01*
X122747482Y-97155908D01*
X122747483Y-97155908D01*
X122687883Y-97149501D01*
X122687881Y-97149500D01*
X122687873Y-97149500D01*
X122687864Y-97149500D01*
X116992129Y-97149500D01*
X116992123Y-97149501D01*
X116932516Y-97155908D01*
X116797671Y-97206202D01*
X116797664Y-97206206D01*
X116682455Y-97292452D01*
X116682452Y-97292455D01*
X116596206Y-97407664D01*
X116596202Y-97407671D01*
X116545908Y-97542517D01*
X116539501Y-97602116D01*
X116539501Y-97602123D01*
X116539500Y-97602135D01*
X115500500Y-97602135D01*
X115500500Y-89252135D01*
X120799500Y-89252135D01*
X120799500Y-90747870D01*
X120799501Y-90747876D01*
X120805908Y-90807483D01*
X120856202Y-90942328D01*
X120856206Y-90942335D01*
X120942452Y-91057544D01*
X120942455Y-91057547D01*
X121064769Y-91149112D01*
X121063070Y-91151381D01*
X121102264Y-91190580D01*
X121117111Y-91258854D01*
X121092690Y-91324317D01*
X121063689Y-91349445D01*
X121064769Y-91350888D01*
X120942455Y-91442452D01*
X120942452Y-91442455D01*
X120856206Y-91557664D01*
X120856202Y-91557671D01*
X120805908Y-91692517D01*
X120799501Y-91752116D01*
X120799501Y-91752123D01*
X120799500Y-91752135D01*
X120799500Y-93247870D01*
X120799501Y-93247876D01*
X120805908Y-93307483D01*
X120856202Y-93442328D01*
X120856206Y-93442335D01*
X120942452Y-93557544D01*
X120942455Y-93557547D01*
X121064769Y-93649112D01*
X121063070Y-93651381D01*
X121102264Y-93690580D01*
X121117111Y-93758854D01*
X121092690Y-93824317D01*
X121063689Y-93849445D01*
X121064769Y-93850888D01*
X120942455Y-93942452D01*
X120942452Y-93942455D01*
X120856206Y-94057664D01*
X120856202Y-94057671D01*
X120805908Y-94192517D01*
X120803531Y-94214631D01*
X120799501Y-94252123D01*
X120799500Y-94252135D01*
X120799500Y-95747870D01*
X120799501Y-95747876D01*
X120805908Y-95807483D01*
X120856202Y-95942328D01*
X120856206Y-95942335D01*
X120942452Y-96057544D01*
X120942455Y-96057547D01*
X121057664Y-96143793D01*
X121057671Y-96143797D01*
X121192517Y-96194091D01*
X121192516Y-96194091D01*
X121199444Y-96194835D01*
X121252127Y-96200500D01*
X124747872Y-96200499D01*
X124807483Y-96194091D01*
X124942331Y-96143796D01*
X125057546Y-96057546D01*
X125143796Y-95942331D01*
X125194091Y-95807483D01*
X125200500Y-95747873D01*
X125200500Y-95724500D01*
X125220185Y-95657461D01*
X125272989Y-95611706D01*
X125324500Y-95600500D01*
X126417588Y-95600500D01*
X126484627Y-95620185D01*
X126494903Y-95627555D01*
X126497736Y-95629814D01*
X126497738Y-95629816D01*
X126611270Y-95701152D01*
X126648426Y-95724500D01*
X126650478Y-95725789D01*
X126820745Y-95785368D01*
X126820750Y-95785369D01*
X126999996Y-95805565D01*
X127000000Y-95805565D01*
X127000004Y-95805565D01*
X127179249Y-95785369D01*
X127179252Y-95785368D01*
X127179255Y-95785368D01*
X127349522Y-95725789D01*
X127502262Y-95629816D01*
X127629816Y-95502262D01*
X127725789Y-95349522D01*
X127785368Y-95179255D01*
X127805565Y-95000000D01*
X127785368Y-94820745D01*
X127725789Y-94650478D01*
X127629816Y-94497738D01*
X127502262Y-94370184D01*
X127491117Y-94363181D01*
X127349523Y-94274211D01*
X127179254Y-94214631D01*
X127179249Y-94214630D01*
X127000004Y-94194435D01*
X126999996Y-94194435D01*
X126820750Y-94214630D01*
X126820745Y-94214631D01*
X126650476Y-94274211D01*
X126497736Y-94370185D01*
X126494903Y-94372445D01*
X126492724Y-94373334D01*
X126491842Y-94373889D01*
X126491744Y-94373734D01*
X126430217Y-94398855D01*
X126417588Y-94399500D01*
X125324499Y-94399500D01*
X125257460Y-94379815D01*
X125211705Y-94327011D01*
X125200499Y-94275500D01*
X125200499Y-94252129D01*
X125200498Y-94252123D01*
X125200497Y-94252116D01*
X125194091Y-94192517D01*
X125143796Y-94057669D01*
X125143795Y-94057668D01*
X125143793Y-94057664D01*
X125057547Y-93942455D01*
X125057544Y-93942452D01*
X124935231Y-93850888D01*
X124936930Y-93848617D01*
X124897743Y-93809435D01*
X124882886Y-93741163D01*
X124907298Y-93675697D01*
X124936311Y-93650556D01*
X124935231Y-93649112D01*
X125015136Y-93589293D01*
X125057546Y-93557546D01*
X125143796Y-93442331D01*
X125194091Y-93307483D01*
X125200500Y-93247873D01*
X125200499Y-91752128D01*
X125194091Y-91692517D01*
X125143884Y-91557906D01*
X125143797Y-91557671D01*
X125143793Y-91557664D01*
X125057547Y-91442455D01*
X125057544Y-91442452D01*
X124935231Y-91350888D01*
X124936930Y-91348617D01*
X124897743Y-91309435D01*
X124882886Y-91241163D01*
X124907298Y-91175697D01*
X124936311Y-91150556D01*
X124935231Y-91149112D01*
X125015136Y-91089293D01*
X125057546Y-91057546D01*
X125143796Y-90942331D01*
X125194091Y-90807483D01*
X125200500Y-90747873D01*
X125200500Y-90724500D01*
X125220185Y-90657461D01*
X125272989Y-90611706D01*
X125324500Y-90600500D01*
X137199903Y-90600500D01*
X137266942Y-90620185D01*
X137287584Y-90636819D01*
X142015139Y-95364374D01*
X142015149Y-95364385D01*
X142019479Y-95368715D01*
X142019480Y-95368716D01*
X142131284Y-95480520D01*
X142218095Y-95530639D01*
X142218097Y-95530641D01*
X142256151Y-95552611D01*
X142268215Y-95559577D01*
X142420943Y-95600501D01*
X142420946Y-95600501D01*
X142586653Y-95600501D01*
X142586669Y-95600500D01*
X159545501Y-95600500D01*
X159612540Y-95620185D01*
X159658295Y-95672989D01*
X159669501Y-95724500D01*
X159669501Y-95747876D01*
X159675908Y-95807483D01*
X159726202Y-95942328D01*
X159726206Y-95942335D01*
X159812452Y-96057544D01*
X159812455Y-96057547D01*
X159927664Y-96143793D01*
X159927671Y-96143797D01*
X160062517Y-96194091D01*
X160062516Y-96194091D01*
X160069444Y-96194835D01*
X160122127Y-96200500D01*
X163617872Y-96200499D01*
X163677483Y-96194091D01*
X163812331Y-96143796D01*
X163927546Y-96057546D01*
X164013796Y-95942331D01*
X164064091Y-95807483D01*
X164070500Y-95747873D01*
X164070499Y-94252128D01*
X164064091Y-94192517D01*
X164013796Y-94057669D01*
X164013795Y-94057668D01*
X164013793Y-94057664D01*
X163927547Y-93942455D01*
X163927544Y-93942452D01*
X163805231Y-93850888D01*
X163806827Y-93848754D01*
X163767212Y-93809140D01*
X163752360Y-93740867D01*
X163776776Y-93675403D01*
X163806029Y-93650059D01*
X163804989Y-93648669D01*
X163927187Y-93557190D01*
X163927190Y-93557187D01*
X164013350Y-93442093D01*
X164013354Y-93442086D01*
X164063596Y-93307379D01*
X164063598Y-93307372D01*
X164069999Y-93247844D01*
X164070000Y-93247827D01*
X164070000Y-92750000D01*
X159670000Y-92750000D01*
X159670000Y-93247844D01*
X159676401Y-93307372D01*
X159676403Y-93307379D01*
X159726645Y-93442086D01*
X159726649Y-93442093D01*
X159812809Y-93557187D01*
X159812812Y-93557190D01*
X159935011Y-93648669D01*
X159933365Y-93650866D01*
X159972782Y-93690276D01*
X159987640Y-93758547D01*
X159963229Y-93824014D01*
X159933766Y-93849548D01*
X159934769Y-93850888D01*
X159812455Y-93942452D01*
X159812452Y-93942455D01*
X159726206Y-94057664D01*
X159726202Y-94057671D01*
X159675908Y-94192517D01*
X159673531Y-94214631D01*
X159669501Y-94252123D01*
X159669500Y-94252135D01*
X159669500Y-94275500D01*
X159649815Y-94342539D01*
X159597011Y-94388294D01*
X159545500Y-94399500D01*
X142800097Y-94399500D01*
X142733058Y-94379815D01*
X142712416Y-94363181D01*
X138349231Y-89999996D01*
X157194435Y-89999996D01*
X157194435Y-90000003D01*
X157214630Y-90179249D01*
X157214631Y-90179254D01*
X157274211Y-90349523D01*
X157370184Y-90502262D01*
X157497738Y-90629816D01*
X157588080Y-90686582D01*
X157648426Y-90724500D01*
X157650478Y-90725789D01*
X157820745Y-90785368D01*
X157820750Y-90785369D01*
X157999996Y-90805565D01*
X158000000Y-90805565D01*
X158000004Y-90805565D01*
X158179249Y-90785369D01*
X158179252Y-90785368D01*
X158179255Y-90785368D01*
X158349522Y-90725789D01*
X158502262Y-90629816D01*
X158502267Y-90629810D01*
X158505097Y-90627555D01*
X158507275Y-90626665D01*
X158508158Y-90626111D01*
X158508255Y-90626265D01*
X158569783Y-90601145D01*
X158582412Y-90600500D01*
X159545501Y-90600500D01*
X159612540Y-90620185D01*
X159658295Y-90672989D01*
X159669501Y-90724500D01*
X159669501Y-90747876D01*
X159675908Y-90807483D01*
X159726202Y-90942328D01*
X159726206Y-90942335D01*
X159812452Y-91057544D01*
X159812455Y-91057547D01*
X159934769Y-91149112D01*
X159933170Y-91151246D01*
X159972781Y-91190848D01*
X159987640Y-91259119D01*
X159963230Y-91324586D01*
X159933972Y-91349944D01*
X159935011Y-91351331D01*
X159812812Y-91442809D01*
X159812809Y-91442812D01*
X159726649Y-91557906D01*
X159726645Y-91557913D01*
X159676403Y-91692620D01*
X159676401Y-91692627D01*
X159670000Y-91752155D01*
X159670000Y-92250000D01*
X164070000Y-92250000D01*
X164070000Y-91752172D01*
X164069999Y-91752155D01*
X164063598Y-91692627D01*
X164063596Y-91692620D01*
X164013354Y-91557913D01*
X164013350Y-91557906D01*
X163927190Y-91442812D01*
X163927187Y-91442809D01*
X163804989Y-91351331D01*
X163806632Y-91349135D01*
X163767211Y-91309712D01*
X163752360Y-91241438D01*
X163776778Y-91175974D01*
X163806236Y-91150455D01*
X163805231Y-91149112D01*
X163885136Y-91089293D01*
X163927546Y-91057546D01*
X164013796Y-90942331D01*
X164064091Y-90807483D01*
X164070500Y-90747873D01*
X164070499Y-89252128D01*
X164064091Y-89192517D01*
X164013796Y-89057669D01*
X164013795Y-89057668D01*
X164013793Y-89057664D01*
X163927547Y-88942455D01*
X163927544Y-88942452D01*
X163812335Y-88856206D01*
X163812328Y-88856202D01*
X163677482Y-88805908D01*
X163677483Y-88805908D01*
X163617883Y-88799501D01*
X163617881Y-88799500D01*
X163617873Y-88799500D01*
X163617864Y-88799500D01*
X160122129Y-88799500D01*
X160122123Y-88799501D01*
X160062516Y-88805908D01*
X159927671Y-88856202D01*
X159927664Y-88856206D01*
X159812455Y-88942452D01*
X159812452Y-88942455D01*
X159726206Y-89057664D01*
X159726202Y-89057671D01*
X159675908Y-89192517D01*
X159673531Y-89214631D01*
X159669501Y-89252123D01*
X159669500Y-89252135D01*
X159669500Y-89275500D01*
X159649815Y-89342539D01*
X159597011Y-89388294D01*
X159545500Y-89399500D01*
X158582412Y-89399500D01*
X158515373Y-89379815D01*
X158505097Y-89372445D01*
X158502263Y-89370185D01*
X158502262Y-89370184D01*
X158433553Y-89327011D01*
X158349523Y-89274211D01*
X158179254Y-89214631D01*
X158179249Y-89214630D01*
X158000004Y-89194435D01*
X157999996Y-89194435D01*
X157820750Y-89214630D01*
X157820745Y-89214631D01*
X157650476Y-89274211D01*
X157497737Y-89370184D01*
X157370184Y-89497737D01*
X157274211Y-89650476D01*
X157214631Y-89820745D01*
X157214630Y-89820750D01*
X157194435Y-89999996D01*
X138349231Y-89999996D01*
X137987590Y-89638355D01*
X137987588Y-89638352D01*
X137868717Y-89519481D01*
X137868709Y-89519475D01*
X137766936Y-89460717D01*
X137766934Y-89460716D01*
X137731790Y-89440425D01*
X137731789Y-89440424D01*
X137719263Y-89437067D01*
X137579057Y-89399499D01*
X137420943Y-89399499D01*
X137413347Y-89399499D01*
X137413331Y-89399500D01*
X125324499Y-89399500D01*
X125257460Y-89379815D01*
X125211705Y-89327011D01*
X125200499Y-89275500D01*
X125200499Y-89252129D01*
X125200498Y-89252123D01*
X125200497Y-89252116D01*
X125194091Y-89192517D01*
X125143796Y-89057669D01*
X125143795Y-89057668D01*
X125143793Y-89057664D01*
X125057547Y-88942455D01*
X125057544Y-88942452D01*
X124942335Y-88856206D01*
X124942328Y-88856202D01*
X124807482Y-88805908D01*
X124807483Y-88805908D01*
X124747883Y-88799501D01*
X124747881Y-88799500D01*
X124747873Y-88799500D01*
X124747864Y-88799500D01*
X121252129Y-88799500D01*
X121252123Y-88799501D01*
X121192516Y-88805908D01*
X121057671Y-88856202D01*
X121057664Y-88856206D01*
X120942455Y-88942452D01*
X120942452Y-88942455D01*
X120856206Y-89057664D01*
X120856202Y-89057671D01*
X120805908Y-89192517D01*
X120803531Y-89214631D01*
X120799501Y-89252123D01*
X120799500Y-89252135D01*
X115500500Y-89252135D01*
X115500500Y-85002135D01*
X116539500Y-85002135D01*
X116539500Y-87397870D01*
X116539501Y-87397876D01*
X116545908Y-87457483D01*
X116596202Y-87592328D01*
X116596206Y-87592335D01*
X116682452Y-87707544D01*
X116682455Y-87707547D01*
X116797664Y-87793793D01*
X116797671Y-87793797D01*
X116932517Y-87844091D01*
X116932516Y-87844091D01*
X116939444Y-87844835D01*
X116992127Y-87850500D01*
X122687872Y-87850499D01*
X122747483Y-87844091D01*
X122882331Y-87793796D01*
X122997546Y-87707546D01*
X123083796Y-87592331D01*
X123134091Y-87457483D01*
X123140500Y-87397873D01*
X123140499Y-85002135D01*
X161729500Y-85002135D01*
X161729500Y-87397870D01*
X161729501Y-87397876D01*
X161735908Y-87457483D01*
X161786202Y-87592328D01*
X161786206Y-87592335D01*
X161872452Y-87707544D01*
X161872455Y-87707547D01*
X161987664Y-87793793D01*
X161987671Y-87793797D01*
X162122517Y-87844091D01*
X162122516Y-87844091D01*
X162129444Y-87844835D01*
X162182127Y-87850500D01*
X167877872Y-87850499D01*
X167937483Y-87844091D01*
X168072331Y-87793796D01*
X168187546Y-87707546D01*
X168273796Y-87592331D01*
X168324091Y-87457483D01*
X168330500Y-87397873D01*
X168330499Y-85002128D01*
X168324091Y-84942517D01*
X168273796Y-84807669D01*
X168273795Y-84807668D01*
X168273793Y-84807664D01*
X168187547Y-84692455D01*
X168187544Y-84692452D01*
X168072335Y-84606206D01*
X168072328Y-84606202D01*
X167937482Y-84555908D01*
X167937483Y-84555908D01*
X167877883Y-84549501D01*
X167877881Y-84549500D01*
X167877873Y-84549500D01*
X167877864Y-84549500D01*
X162182129Y-84549500D01*
X162182123Y-84549501D01*
X162122516Y-84555908D01*
X161987671Y-84606202D01*
X161987664Y-84606206D01*
X161872455Y-84692452D01*
X161872452Y-84692455D01*
X161786206Y-84807664D01*
X161786202Y-84807671D01*
X161735908Y-84942517D01*
X161729501Y-85002116D01*
X161729501Y-85002123D01*
X161729500Y-85002135D01*
X123140499Y-85002135D01*
X123140499Y-85002128D01*
X123134091Y-84942517D01*
X123083796Y-84807669D01*
X123083795Y-84807668D01*
X123083793Y-84807664D01*
X122997547Y-84692455D01*
X122997544Y-84692452D01*
X122882335Y-84606206D01*
X122882328Y-84606202D01*
X122747482Y-84555908D01*
X122747483Y-84555908D01*
X122687883Y-84549501D01*
X122687881Y-84549500D01*
X122687873Y-84549500D01*
X122687864Y-84549500D01*
X116992129Y-84549500D01*
X116992123Y-84549501D01*
X116932516Y-84555908D01*
X116797671Y-84606202D01*
X116797664Y-84606206D01*
X116682455Y-84692452D01*
X116682452Y-84692455D01*
X116596206Y-84807664D01*
X116596202Y-84807671D01*
X116545908Y-84942517D01*
X116539501Y-85002116D01*
X116539501Y-85002123D01*
X116539500Y-85002135D01*
X115500500Y-85002135D01*
X115500500Y-83624500D01*
X115520185Y-83557461D01*
X115572989Y-83511706D01*
X115624500Y-83500500D01*
X169375500Y-83500500D01*
X169442539Y-83520185D01*
G37*
%TD.AperFunction*%
%TD*%
M02*
